HIERARCHY
ROOT hip
{
	OFFSET 0.000000 0.000000 0.000000 
	CHANNELS 6 Xposition Yposition Zposition Xrotation Zrotation Yrotation
	JOINT abdomen
	{
		OFFSET 0.000000 3.402643 0.000000 
		CHANNELS 3 Xrotation Zrotation Yrotation
		JOINT chest
		{
			OFFSET 0.000000 8.438565 -0.680529 
			CHANNELS 3 Xrotation Zrotation Yrotation
			JOINT neck
			{
				OFFSET 0.000000 10.207942 -0.272212 
				CHANNELS 3 Xrotation Zrotation Yrotation
				JOINT head
				{
					OFFSET 0.000000 3.130431 0.000000 
					CHANNELS 3 Xrotation Zrotation Yrotation
					End Site
					{
						OFFSET 0.000000 3.130435 0.000000 
					}
				}
			}
			JOINT lCollar
			{
				OFFSET 3.470700 6.669187 -0.816635 
				CHANNELS 3 Yrotation Zrotation Xrotation
				JOINT lShldr
				{
					OFFSET 3.198488 0.000000 0.000000 
					CHANNELS 3 Zrotation Yrotation Xrotation
					JOINT lForeArm
					{
						OFFSET 10.139888 0.000000 0.000000 
						CHANNELS 3 Yrotation Zrotation Xrotation
						JOINT lHand
						{
							OFFSET 8.370511 0.000000 0.000000 
							CHANNELS 3 Zrotation Yrotation Xrotation
							End Site
							{
								OFFSET 4.083176 0.000000 0.000000 
							}
						}
					}
				}
			}
			JOINT rCollar
			{
				OFFSET -3.470700 6.669187 -0.816635 
				CHANNELS 3 Yrotation Zrotation Xrotation
				JOINT rShldr
				{
					OFFSET -3.198488 0.000000 0.000000 
					CHANNELS 3 Zrotation Yrotation Xrotation
					JOINT rForeArm
					{
						OFFSET -10.139888 0.000000 0.000000 
						CHANNELS 3 Yrotation Zrotation Xrotation
						JOINT rHand
						{
							OFFSET -8.370511 0.000000 0.000000 
							CHANNELS 3 Zrotation Yrotation Xrotation
							End Site
							{
								OFFSET -4.083176 0.000000 0.000000 
							}
						}
					}
				}
			}
		}
	}
	JOINT lThigh
	{
		OFFSET 5.308129 -1.633274 1.361059 
		CHANNELS 3 Xrotation Zrotation Yrotation
		JOINT lShin
		{
			OFFSET -2.041588 -20.007561 0.000000 
			CHANNELS 3 Xrotation Zrotation Yrotation
			JOINT lFoot
			{
				OFFSET 0.000000 -19.190928 -1.224953 
				CHANNELS 3 Xrotation Yrotation Zrotation
				End Site
				{
					OFFSET 0.000000 -2.449906 4.627600 
				}
			}
		}
	}
	JOINT rThigh
	{
		OFFSET -5.308129 -1.633274 1.361059 
		CHANNELS 3 Xrotation Zrotation Yrotation
		JOINT rShin
		{
			OFFSET 2.041588 -20.007561 0.000000 
			CHANNELS 3 Xrotation Zrotation Yrotation
			JOINT rFoot
			{
				OFFSET 0.000000 -19.190928 -1.224953 
				CHANNELS 3 Xrotation Yrotation Zrotation
				End Site
				{
					OFFSET 0.000000 -2.449906 4.627600 
				}
			}
		}
	}
}
MOTION
Frames: 13
Frame Time: 0.033333
-19.581976 49.763149 28.715504 -1.704745 -0.769214 152.253067 0.000000 0.000000 0.000000 -1.440390 -1.727958 1.455594 2.743380 -1.610611 -1.709682 7.446209 0.692513 -2.832178 -1.322716 -2.521703 -0.762073 -65.948318 5.416656 17.743805 -48.964993 -9.123028 26.795389 1.904087 12.501893 -3.472115 7.265794 7.565560 -0.959215 62.598129 -19.997946 10.039113 49.989204 7.668675 13.601900 -3.238602 -8.780663 -3.432846 -5.162395 5.259268 5.260762 10.958851 -3.038650 -8.946864 -7.397544 0.024539 -0.695497 -0.029872 -6.015513 -5.802132 7.587275 1.062973 -25.408510 -5.650369 -0.458936 8.291767 
-19.455967 49.759079 28.934536 -2.019320 -1.226718 152.199951 0.000000 0.000000 0.000000 -1.665993 -1.698626 1.514164 2.707733 -1.649588 -1.788055 6.909360 0.653413 -2.978656 -1.311997 -2.556786 -0.947825 -65.729492 5.349344 18.186069 -49.038853 -9.254012 26.643362 2.015046 12.293937 -3.466858 7.352826 7.257554 -1.142793 61.823532 -20.017775 10.204460 49.798378 7.749535 13.581385 -3.360175 -8.710429 -3.428431 -5.583408 5.251079 5.133109 10.506209 -3.078045 -8.862267 -7.011271 0.032284 -0.990574 -1.796869 -6.249038 -6.315233 10.386719 1.529799 -30.301533 -6.497161 -0.520364 8.199389 
-19.324648 49.773129 29.167368 -2.266433 -1.482249 151.933121 0.000000 0.000000 0.000000 -1.682964 -1.532619 1.582510 2.540251 -1.620322 -1.768528 6.971383 0.741091 -3.115479 -1.163010 -2.334034 -0.977149 -65.689186 5.346145 18.258808 -48.712475 -9.319933 26.589689 1.842178 12.116178 -3.483294 7.392749 7.116322 -1.172729 61.074123 -19.757368 9.835392 49.706352 7.686320 13.290306 -3.496488 -9.140828 -3.416458 -5.796889 5.464371 5.248971 9.939061 -3.185285 -8.462955 -6.563738 0.055911 -1.320303 -3.387284 -6.314579 -6.771447 12.732513 1.980674 -34.945930 -6.940509 -0.523401 7.834381 
-19.195660 49.776756 29.405962 -2.483250 -1.703879 151.245789 0.000000 0.000000 0.000000 -1.690006 -1.327534 1.709430 2.406042 -1.483759 -1.651101 7.149464 0.692315 -3.144655 -1.042174 -2.121219 -0.976822 -65.328491 5.706478 18.194544 -48.289955 -9.448855 26.622873 1.947526 11.740848 -3.469286 7.483622 7.141287 -1.191719 59.904823 -19.402569 9.632064 49.713154 7.730130 12.528713 -3.413828 -9.360407 -3.414743 -5.981823 5.707788 5.363965 9.557235 -3.232107 -8.090399 -6.287551 0.061472 -1.668742 -4.840418 -6.420079 -7.224251 14.793582 2.469271 -39.116028 -7.237123 -0.519293 7.489710 
-19.058384 49.743641 29.612406 -2.284542 -1.798291 150.286346 0.000000 0.000000 0.000000 -1.423468 -1.122446 1.875214 2.644556 -1.395991 -1.523937 7.010339 0.711743 -3.252187 -0.980048 -1.843418 -0.713048 -65.077362 6.138726 17.966591 -47.673786 -9.601858 25.886255 1.840538 12.556761 -3.482078 7.586900 7.064662 -0.936775 58.803093 -18.843603 9.406347 49.841805 7.771690 11.811443 -3.465071 -9.746047 -3.408605 -5.934729 5.875589 5.414630 9.773757 -3.136457 -7.601215 -6.429914 0.087891 -2.052557 -5.845369 -6.702604 -7.858276 16.880371 2.992088 -41.892780 -7.758058 -0.548211 7.294503 
-18.879854 49.708904 29.774416 -1.952879 -1.939316 149.267288 0.000000 0.000000 0.000000 -1.152297 -0.985894 1.699303 2.750449 -1.347186 -1.514172 7.185153 0.585082 -3.095841 -1.146233 -1.670560 -0.458983 -64.751236 7.112342 17.272123 -46.997803 -9.611033 24.487265 1.141673 12.941968 -3.543667 7.459087 6.989322 -0.702757 57.635239 -17.958424 9.240458 49.914719 7.775147 11.824467 -3.280376 -9.899768 -3.409479 -5.739172 5.845941 5.548044 10.018050 -3.056721 -6.305659 -6.597417 0.121696 -2.486956 -5.224517 -6.952917 -8.339757 16.011093 3.362480 -42.427593 -7.528522 -0.560563 7.862520 
-18.700493 49.673950 29.947405 -1.766542 -2.365477 147.859589 0.000000 0.000000 0.000000 -1.121273 -1.015252 1.552837 2.784806 -1.161699 -1.523916 7.314454 0.000000 -2.734375 -1.349717 -1.503137 -0.449197 -64.387199 8.448187 16.742012 -46.172947 -9.676501 23.519384 0.621273 13.710912 -3.591005 7.282269 7.101351 -0.683807 56.231319 -17.033577 9.119608 50.173828 7.827730 11.491000 -3.370085 -9.866655 -3.405017 -5.640806 5.737633 5.544430 9.963339 -3.057262 -4.733275 -6.652239 0.148879 -2.934387 -4.332668 -7.179628 -8.477945 13.775128 3.538229 -40.421837 -7.018154 -0.573060 8.636621 
-18.563305 49.642822 30.167875 -1.825364 -3.134619 145.781067 0.000000 0.000000 0.000000 -1.368270 -1.054250 1.650650 2.685014 -1.249669 -1.318685 7.445866 -0.097554 -2.617200 -1.277851 -1.508300 -0.683446 -63.856369 9.939156 16.370697 -45.507397 -9.802935 22.674700 0.445905 14.002962 -3.606540 7.284073 6.821735 -0.888123 55.450699 -16.071501 8.797956 50.525970 7.716960 11.222210 -3.359564 -10.013098 -3.406080 -5.621342 5.435262 5.254605 9.421905 -2.783095 -3.033441 -6.580477 0.185421 -3.707542 -5.517282 -7.655491 -8.394403 14.364320 3.504972 -37.853565 -7.443841 -0.609494 8.619709 
-18.277905 49.629253 30.327154 -1.641087 -2.993739 143.946976 0.000000 0.000000 0.000000 -1.198761 -0.722453 1.357437 2.739556 -0.986018 -1.435838 7.657806 -0.263429 -2.461001 -1.463680 -0.983409 -0.497812 -63.729469 11.573853 15.985169 -45.178196 -9.777817 22.480959 0.807413 14.506318 -3.580250 6.833419 6.651676 -0.732569 55.255337 -15.133884 8.600952 51.533184 7.533237 10.255445 -3.712322 -10.664455 -3.383474 -5.182794 5.719008 5.408081 9.445540 -2.461248 -0.898780 -6.722395 0.240046 -4.442935 -5.641125 -7.279293 -8.073030 14.672705 3.509402 -35.592781 -8.035586 -0.598132 8.070748 
-18.000965 49.625134 30.478512 -1.459125 -3.378944 141.629929 0.000000 0.000000 0.000000 -1.314333 -0.790864 1.123075 2.854800 -0.780918 -1.670166 7.412913 -0.507405 -2.295091 -1.657004 -0.607245 -0.614944 -63.645969 13.668409 15.831674 -44.958107 -9.795102 22.012968 0.873391 14.931738 -3.577943 6.507517 6.283535 -0.830538 55.287880 -14.711707 8.665993 52.667812 7.313855 9.604010 -5.043004 -10.460382 -3.299877 -4.451818 5.505805 5.153154 8.449389 -1.943327 1.657459 -6.385705 0.320763 -5.394904 -6.141080 -7.468069 -7.940289 15.164263 3.591826 -32.011570 -8.770444 -0.621696 7.441619 
-17.741087 49.597599 30.679510 -2.259677 -3.656137 138.676590 0.000000 0.000000 0.000000 -1.890368 -0.331984 0.966780 2.357663 -0.429462 -1.855563 7.629082 -0.048782 -2.500007 -1.609871 0.090160 -1.122617 -63.822529 15.950247 15.484647 -44.756245 -9.700317 21.486588 0.035836 15.395931 -3.661969 6.282681 6.529847 -1.388537 54.945263 -14.314973 9.052739 54.097054 7.130056 9.819977 -5.315346 -10.194589 -3.289273 -5.146123 6.034472 5.031517 9.200766 -1.299060 4.466411 -7.004318 0.402562 -6.479278 -7.331523 -6.852548 -7.127004 15.165096 3.670970 -28.525303 -9.114474 -0.564531 6.624929 
-17.414352 49.547794 30.857603 -2.729364 -3.658158 135.333649 0.000000 0.000000 0.000000 -2.186568 0.078119 0.683607 2.257277 -0.039037 -2.080084 7.429065 0.058537 -2.519530 -1.824383 0.502962 -1.376369 -63.772472 18.328409 15.221525 -44.646793 -9.675203 20.354429 -0.222741 15.477152 -3.690326 5.976205 6.858341 -1.693047 54.034252 -13.538297 10.792440 55.403873 7.361323 9.565955 -6.104273 -10.209613 -3.239576 -5.280425 6.704772 5.075949 10.201002 -0.616720 7.579194 -7.746608 0.547591 -7.808812 -8.090068 -5.961676 -6.205759 15.361078 3.603460 -24.605078 -9.611280 -0.532442 5.764748 
-17.107874 49.476978 30.982792 -2.716650 -3.729680 131.091400 0.000000 0.000000 0.000000 -2.293244 0.205071 0.468782 2.411341 0.019516 -2.255859 7.254354 0.458502 -2.627025 -2.225763 0.819253 -1.473755 -64.408195 21.137135 14.421072 -44.597900 -9.386498 19.185007 -0.648719 15.449821 -3.739011 6.091667 7.192685 -1.831302 53.351490 -12.727242 12.273939 56.080395 7.492497 10.565008 -5.940247 -10.325640 -3.244826 -4.724843 6.969630 5.420520 10.965364 -0.185671 11.709375 -8.415378 0.671271 -9.108135 -8.968101 -5.346891 -5.346719 16.198498 3.357631 -19.784973 -10.276050 -0.469850 4.897001 
